<?xml version="1.0" encoding="utf-8"?>
<!-- Generator: Adobe Illustrator 16.0.0, SVG Export Plug-In . SVG Version: 6.00 Build 0)  -->
<!DOCTYPE svg PUBLIC "-//W3C//DTD SVG 1.1//EN" "http://www.w3.org/Graphics/SVG/1.1/DTD/svg11.dtd">
<svg version="1.1" id="Layer_1" xmlns="http://www.w3.org/2000/svg" xmlns:xlink="http://www.w3.org/1999/xlink" x="0px" y="0px"
	 width="70px" height="63.371px" viewBox="0 0 70 63.371" enable-background="new 0 0 70 63.371" xml:space="preserve">
<g>
	<g id="Layer_3_2_">
		<g>
			<path fill="#49190F" d="M6.155,11.404c0,0,0.601,14.063-0.316,42.876h6.748c0,0-0.345-25.726,0.228-43.219
				C12.815,11.061,9.213,11.292,6.155,11.404z"/>
			<path fill="#49190F" d="M0.125,11.175V9.689c0,0,7.832,1.029,19.208,0.113c0,0-0.057,0.787-0.228,1.516
				C19.105,11.318,10.057,13.163,0.125,11.175z"/>
			<path fill="#49190F" d="M0.409,55.439l-0.471-1.974c0,0,3.431,0.472,10.819-0.385c0.39-0.045-0.186,0.085-0.186,0.085
				s11.579,0.129,15.506-3.344l-0.456,5.659C25.622,55.481,14.388,54.495,0.409,55.439z"/>
			<path fill="#49190F" d="M27.451,41.762l1.372,0.4c0,0-2.401,10.175-2.631,20.808l-1.428,0.401
				C24.764,63.371,24.021,56.054,27.451,41.762z"/>
			<path fill="#49190F" d="M30.88,11.062c0,0,0.486,11.576,0.059,43.048l6.859,0.171c0,0-0.856-24.182-0.171-43.219H30.88z"/>
			<path fill="#49190F" d="M25.021,9.689c0,0,15.093,0.943,26.068-0.086l-0.17,5.488c0,0-2.745-3.515-16.464-3.258l-1.203,1.543
				c0,0-0.942-1.8-8.145-2.144L25.021,9.689z"/>
			<path fill="#49190F" d="M50.89,6.488l1.229-0.058c0,0-0.715,4.402-1.115,13.035l-1.144-0.457
				C49.86,19.007,49.69,13.005,50.89,6.488z"/>
			<path fill="#49190F" d="M38.941,3.801c0,0-2.288,2.172-5.173,4.088l-0.887-0.887c0,0,3.888-3.573,6.031-7.003
				c0,0,2.488,3.602,5.833,7.203l-1.029,1.029C43.716,8.231,41.643,6.574,38.941,3.801z"/>
			<path fill="#49190F" d="M35.311,30.271c0,0,9.261,0.085,13.807-1.03l-0.516,5.06c0,0,0.858-2.059-12.862-2.401L35.311,30.271z"/>
			<path fill="#49190F" d="M49.061,26.611l1.173-0.201c0,0-0.83,4.832-1.458,11.749l-1.03-0.343
				C47.745,37.816,47.517,33.071,49.061,26.611z"/>
			<path fill="#49190F" d="M25.021,54.023c0,0,6.604-0.429,9.004-1.8l0.43,1.285c0,0,13.806,0,16.634-2.743l0.088,4.887
				c0,0-13.035-0.858-25.555-0.343L25.021,54.023z"/>
			<path fill="#49190F" d="M51.805,45.135l1.173-0.115c0,0-1.029,4.201-1.803,14.664l-1.113,0.086
				C50.062,59.77,50.003,52.767,51.805,45.135z"/>
			<path fill="#49190F" d="M53.748,16.292c0,0,1.715,1.114,3.687,1.801c0,0-3.345,9.518-4.372,10.977l-1.285-0.171
				C51.777,28.898,53.404,23.667,53.748,16.292z"/>
			<path fill="#49190F" d="M69.87,20.094c0,0-1.086,6.231-0.801,12.178l-1.028-0.401c0,0-0.401-3.602,0.913-11.663L69.87,20.094z"/>
			<path fill="#49190F" d="M54.662,45.362l0.63,0.171c0,0,0.456,7.662-0.858,14.293L53.69,59.77
				C53.69,59.77,54.549,53.881,54.662,45.362z"/>
			<path fill="#49190F" d="M68.212,28.612c0,0-1.43-4.441-5.89-4.346c-3.973,0.086-4.209,4.46-4.172,5.146
				c0.057,1.029,0.646,3.129,5.774,6.574c5.402,3.631,6.062,7.176,6.062,10.635c0,4.03-2.289,8.547-7.405,9.29
				c-5.369,0.778-7.888-2.017-7.888-2.017l0.256-5.388c0,0,1.945,6.331,6.859,5.946c4.745-0.372,4.998-4.603,5.031-6.003
				c0.029-1.257-0.761-4.265-6.747-8.519c-5.83-4.144-5.001-8.603-4.973-9.547c0.026-0.914,1.212-7.009,6.746-7.489
				c4.288-0.372,6.632,1.257,7.031,1.6L68.212,28.612z"/>
		</g>
	</g>
	<g id="Layer_1_3_" display="none">
		
			<image display="inline" overflow="visible" enable-background="new    " width="195" height="166" xlink:href="../../../Desktop/Amanda/active/le&apos;s/les_original.jpg"  transform="matrix(0.3236 0 0 0.3236 3.8901 8.1445)">
		</image>
	</g>
	<g id="Layer_2_2_" display="none">
		<path display="inline" fill="#49190F" d="M7.515,16.459c0,0,11.238,0.434,16.096-0.291c0,0-0.144,0.871-0.073,1.16
			c0,0-3.261,0.798-5.364,0.871c0,0-0.435,5.728-0.074,34.804c0,0,5.801,0.435,10.949-2.684c0,0,1.162-2.393,1.74-6.453
			c0,0,0.579,0.145,0.87,0.073c0,0-1.812,10.658-2.32,17.981c0,0-0.363-0.362-1.088-0.58c0,0,0.073-3.987,0.291-6.381
			c0,0-14.865-0.507-21.173-0.145c0,0,0.074-0.653,0.074-1.088c0,0,4.205-0.29,5.004-0.725c0,0,0.289-18.346,0-34.804
			c0,0-3.119-0.362-5.004-0.798C7.443,17.4,7.586,17.039,7.515,16.459z"/>
		<path display="inline" fill="#49190F" d="M28.613,16.386c0,0,15.953,0.653,21.318-0.073c0,0,0.219-1.522,0.654-2.755
			c0,0,0.578,0,0.941,0c0,0-0.941,5.221-1.015,11.093c0,0-0.291,0-0.944-0.434c0,0-0.143-2.466-0.071-3.917
			c0,0-2.103-2.175-10.225-2.175c0,0-0.289,8.629-0.361,15.517"/>
	</g>
</g>
</svg>
