<?xml version="1.0" encoding="utf-8"?>
<!-- Generator: Adobe Illustrator 16.0.0, SVG Export Plug-In . SVG Version: 6.00 Build 0)  -->
<!DOCTYPE svg PUBLIC "-//W3C//DTD SVG 1.1//EN" "http://www.w3.org/Graphics/SVG/1.1/DTD/svg11.dtd">
<svg version="1.1" id="Layer_1" xmlns="http://www.w3.org/2000/svg" xmlns:xlink="http://www.w3.org/1999/xlink" x="0px" y="0px"
	 width="200px" height="56px" viewBox="0 0 200 56" enable-background="new 0 0 200 56" xml:space="preserve">
<g>
	<path fill="#481B12" d="M25.661,8.553c-5.528-1.453-15-1.271-18.722-0.969C2.461,7.947,0,8.634,0,8.634
		c0.888,1.291,1.291,5.245,1.613,9.199c0.323,3.954,0.323,14.685,0.323,19.931c0,8.23-1.21,17.752-1.21,17.752
		c2.582-0.887,6.697-2.178,6.697-2.178C7.343,49.787,7.141,44.863,7.06,35.18c-0.08-9.682,0.242-11.941,0.242-11.941
		c1.452,0,7.707,0.646,15.938-1.21c8.23-1.856,8.311-6.939,8.311-8.23S30.299,9.772,25.661,8.553z M18.156,20.899
		c-4.196,0.968-10.813,0.404-10.813,0.404c0.08-1.856,0.161-11.701,0.161-11.701c2.824-0.242,8.15-0.323,11.216,0.161
		c3.067,0.484,6.294,1.695,6.456,5.003C25.337,18.075,22.352,19.931,18.156,20.899z"/>
	<path fill="#481B12" d="M37.684,7.907c0,0,6.213-0.646,7.262-1.129c0,0-0.161,16.945-0.322,23.32c0,0,2.421-2.583,8.15-3.631
		s11.055,0.888,12.911,2.986c1.855,2.098,1.129,5.084,1.129,9.602c0,4.52,0.161,6.375,0.242,6.939c0,0-5.326,1.613-6.375,2.422
		c0,0,0.646-6.053,0.888-9.281c0.243-3.227,0.323-5.97-0.484-7.262c-0.807-1.291-3.268-3.611-8.029-3.288
		c-4.761,0.322-6.173,1.755-7.061,2.805c-0.888,1.049-1.452,3.308-1.372,6.938c0.081,3.633,0.081,5.326,0.322,7.748
		c0,0-4.841,1.371-6.052,2.096c0,0,0.323-2.742,0.565-7.1s0.403-10.813,0.403-15.09s-0.282-11.177-0.847-14.324
		C38.603,9.366,38.087,8.673,37.684,7.907z"/>
	<path fill="#481B12" d="M89.329,0.484c0,0,2.905,0.727,4.276,2.663c1.372,1.937,0.807,4.52,0.162,6.133
		c-0.646,1.613-4.218,7.503-4.399,9.924c-0.195,2.606,0.484,3.752,1.333,4.52c0,0-1.371-0.161-3.066-1.613
		c-1.695-1.453-1.634-4.016-1.13-5.649c0.442-1.434,3.066-5.972,4.196-7.989c1.13-2.017,1.189-3.692,1.028-4.581
		C91.566,3.004,91.123,1.411,89.329,0.484z"/>
	<path fill="#481B12" d="M107.402,27.716c0.081-1.775-0.666-3.086-1.513-3.329c-0.78-0.223-2.278-0.019-2.924,1.354
		c-0.646,1.372-0.484,3.63-0.484,3.63c-4.116-2.42-7.909-3.752-16.14-3.026c-8.231,0.726-12.668,5.448-13.395,8.352
		c-0.726,2.904-0.323,6.537,5.487,9.604c5.811,3.066,15.931,3.045,21.788,0.402c5.546-2.502,6.653-6.924,6.536-8.875
		c-0.143-2.402-1.533-3.874-1.533-3.874C107.243,31.228,107.322,29.491,107.402,27.716z M90.518,45.045
		c-10.712,0.271-11.91-6.088-11.317-9.643c0.604-3.631,3.083-7.799,10.954-7.868c7.02-0.061,9.623,4.478,9.925,7.868
		C100.35,38.432,98.506,44.844,90.518,45.045z"/>
	<path fill="#481B12" d="M139.842,5.891c0,0,6.375-1.533,7.989-2.501c0,0,0.081,12.75-0.081,19.044s-0.323,23.399-0.162,26.79
		c0,0,4.357,1.291,10.732,1.129c6.376-0.16,12.589-0.887,15.735-2.42c0,0-1.533,3.471-2.259,4.842c0,0-26.628-0.242-31.713,0.404
		c0,0,1.13-2.42,1.615-6.457c0.485-4.033,0.321-11.941,0.404-19.446c0.081-7.505-0.646-17.107-1.21-18.882
		C140.327,6.617,140.648,7.102,139.842,5.891z"/>
	<path fill="#481B12" d="M184.466,20.012h3.874c0,0,5.284,3.589,7.907,5.326h-3.39c0,0-3.713-1.777-6.615-3.309
		c0,0-5.892,2.744-7.183,3.389l-3.066-0.081C175.993,25.338,181.804,21.868,184.466,20.012z"/>
	<path fill="#481B12" d="M187.451,35.506c2.421,0.08,10.33,0.162,12.428,0.162c0,0,0.321-1.789-0.083-3.554
		c-0.321-1.412-2.823-6.455-13.958-6.454c-6.778,0.001-10.006,1.533-12.266,3.146c-2.26,1.615-3.792,4.761-3.711,7.343
		s1.532,6.213,7.504,8.393c5.973,2.178,12.588,1.451,14.848,1.049c2.26-0.404,4.762-1.291,5.972-1.855c0,0,0.402-1.373,0.241-2.34
		c0,0-1.979,1.49-6.255,2.338c-3.112,0.617-10.352,0.887-13.837-2.098c-3.068-2.623-2.502-4.76-2.422-5.889
		C175.912,35.748,185.031,35.426,187.451,35.506z M184.224,27.152c6.617-0.323,9.521,1.575,10.087,6.661
		c0,0-12.104,0.562-18.236,0.078C176.074,33.891,177.606,27.475,184.224,27.152z"/>
</g>
</svg>
